<mxfile host="app.diagrams.net" modified="2024-05-02T15:49:31.791Z" agent="Mozilla/5.0 (Windows NT 10.0; Win64; x64) AppleWebKit/537.36 (KHTML, like Gecko) Chrome/124.0.0.0 Safari/537.36" etag="7y46YlxlnLdfeerzbome" version="24.3.1" type="github">
  <diagram name="Page-1" id="hEFDqEOQeUKf8EPMvet5">
    <mxGraphModel dx="1743" dy="1583" grid="1" gridSize="10" guides="1" tooltips="1" connect="1" arrows="1" fold="1" page="1" pageScale="1" pageWidth="850" pageHeight="1100" math="0" shadow="0">
      <root>
        <mxCell id="0" />
        <mxCell id="1" parent="0" />
        <mxCell id="EUy8n02-vDI4mkvdKWN1-20" value="" style="rounded=0;whiteSpace=wrap;html=1;fillColor=#f8cecc;strokeColor=#b85450;opacity=30;strokeWidth=2;" vertex="1" parent="1">
          <mxGeometry x="-800" y="-900" width="210" height="220" as="geometry" />
        </mxCell>
        <mxCell id="jHZxE4_nvhRUDPhLf2d2-1" value="" style="rounded=0;whiteSpace=wrap;html=1;fillColor=#f8cecc;strokeColor=#b85450;fontSize=10;" parent="1" vertex="1">
          <mxGeometry x="-795.02" y="-870" width="90" height="150" as="geometry" />
        </mxCell>
        <mxCell id="jHZxE4_nvhRUDPhLf2d2-2" style="edgeStyle=orthogonalEdgeStyle;rounded=0;orthogonalLoop=1;jettySize=auto;html=1;fillColor=default;strokeWidth=2;strokeColor=#666666;fontSize=10;" parent="1" source="jHZxE4_nvhRUDPhLf2d2-6" target="jHZxE4_nvhRUDPhLf2d2-17" edge="1">
          <mxGeometry relative="1" as="geometry">
            <Array as="points">
              <mxPoint x="-725" y="-670" />
              <mxPoint x="-730" y="-670" />
            </Array>
          </mxGeometry>
        </mxCell>
        <mxCell id="jHZxE4_nvhRUDPhLf2d2-3" value="Audio" style="edgeLabel;html=1;align=center;verticalAlign=middle;resizable=0;points=[];fontSize=10;labelBackgroundColor=none;" parent="jHZxE4_nvhRUDPhLf2d2-2" vertex="1" connectable="0">
          <mxGeometry x="-0.2349" y="-1" relative="1" as="geometry">
            <mxPoint x="16" y="1" as="offset" />
          </mxGeometry>
        </mxCell>
        <mxCell id="jHZxE4_nvhRUDPhLf2d2-4" value="MIDI Tracker" style="rounded=0;whiteSpace=wrap;html=1;fillColor=#d5e8d4;strokeColor=#82b366;fontSize=10;" parent="1" vertex="1">
          <mxGeometry x="-785.02" y="-840" width="70" height="60" as="geometry" />
        </mxCell>
        <mxCell id="jHZxE4_nvhRUDPhLf2d2-5" value="" style="rounded=0;whiteSpace=wrap;html=1;fillColor=#f8cecc;strokeColor=#b85450;fontSize=10;" parent="1" vertex="1">
          <mxGeometry x="-670" y="-870" width="60" height="170" as="geometry" />
        </mxCell>
        <mxCell id="jHZxE4_nvhRUDPhLf2d2-6" value="Magnetic&amp;nbsp;&lt;br style=&quot;font-size: 10px;&quot;&gt;Pickups" style="rounded=0;whiteSpace=wrap;html=1;fillColor=#d5e8d4;strokeColor=#82b366;fontSize=10;" parent="1" vertex="1">
          <mxGeometry x="-785.02" y="-770" width="70" height="40" as="geometry" />
        </mxCell>
        <mxCell id="jHZxE4_nvhRUDPhLf2d2-8" style="edgeStyle=orthogonalEdgeStyle;rounded=0;orthogonalLoop=1;jettySize=auto;html=1;fillColor=default;strokeWidth=2;strokeColor=#666666;fontSize=10;entryX=0.5;entryY=0;entryDx=0;entryDy=0;exitX=1;exitY=0.5;exitDx=0;exitDy=0;" parent="1" source="jHZxE4_nvhRUDPhLf2d2-12" target="jHZxE4_nvhRUDPhLf2d2-19" edge="1">
          <mxGeometry relative="1" as="geometry">
            <Array as="points">
              <mxPoint x="-600" y="-810" />
            </Array>
            <mxPoint x="-600" y="-800" as="sourcePoint" />
            <mxPoint x="-569.9696969696968" y="-775" as="targetPoint" />
          </mxGeometry>
        </mxCell>
        <mxCell id="jHZxE4_nvhRUDPhLf2d2-9" value="MIDI" style="edgeLabel;html=1;align=center;verticalAlign=middle;resizable=0;points=[];fontSize=10;" parent="jHZxE4_nvhRUDPhLf2d2-8" vertex="1" connectable="0">
          <mxGeometry x="-0.04" y="1" relative="1" as="geometry">
            <mxPoint x="2" y="-9" as="offset" />
          </mxGeometry>
        </mxCell>
        <mxCell id="jHZxE4_nvhRUDPhLf2d2-10" style="edgeStyle=orthogonalEdgeStyle;rounded=0;orthogonalLoop=1;jettySize=auto;html=1;exitX=0.5;exitY=1;exitDx=0;exitDy=0;fillColor=default;strokeWidth=2;strokeColor=#666666;fontSize=10;" parent="1" source="jHZxE4_nvhRUDPhLf2d2-12" target="jHZxE4_nvhRUDPhLf2d2-18" edge="1">
          <mxGeometry relative="1" as="geometry">
            <Array as="points">
              <mxPoint x="-640" y="-694" />
              <mxPoint x="-665" y="-694" />
            </Array>
            <mxPoint x="-640" y="-710" as="sourcePoint" />
          </mxGeometry>
        </mxCell>
        <mxCell id="jHZxE4_nvhRUDPhLf2d2-11" value="OSC" style="edgeLabel;html=1;align=center;verticalAlign=middle;resizable=0;points=[];fontSize=10;labelBackgroundColor=none;" parent="jHZxE4_nvhRUDPhLf2d2-10" vertex="1" connectable="0">
          <mxGeometry x="-0.1267" y="-1" relative="1" as="geometry">
            <mxPoint x="-6" y="31" as="offset" />
          </mxGeometry>
        </mxCell>
        <mxCell id="jHZxE4_nvhRUDPhLf2d2-12" value="VST&lt;br style=&quot;font-size: 10px;&quot;&gt;Plugin" style="rounded=0;whiteSpace=wrap;html=1;fillColor=#d5e8d4;strokeColor=#82b366;fontSize=10;" parent="1" vertex="1">
          <mxGeometry x="-660" y="-830" width="40" height="60" as="geometry" />
        </mxCell>
        <mxCell id="jHZxE4_nvhRUDPhLf2d2-13" value="&lt;u style=&quot;font-size: 10px;&quot;&gt;Guitar&lt;/u&gt;" style="text;html=1;strokeColor=none;fillColor=none;align=center;verticalAlign=middle;whiteSpace=wrap;rounded=0;labelBackgroundColor=none;fontSize=10;" parent="1" vertex="1">
          <mxGeometry x="-775.02" y="-870" width="50" height="20" as="geometry" />
        </mxCell>
        <mxCell id="jHZxE4_nvhRUDPhLf2d2-16" value="&lt;u style=&quot;font-size: 10px;&quot;&gt;Raspberry &lt;br&gt;Pi 4&lt;/u&gt;" style="text;html=1;strokeColor=none;fillColor=none;align=center;verticalAlign=middle;whiteSpace=wrap;rounded=0;labelBackgroundColor=none;fontSize=10;" parent="1" vertex="1">
          <mxGeometry x="-687.5" y="-860" width="95" height="20" as="geometry" />
        </mxCell>
        <mxCell id="jHZxE4_nvhRUDPhLf2d2-17" value="Amplifier/&amp;nbsp;&lt;div&gt;PA System&lt;/div&gt;" style="rounded=0;whiteSpace=wrap;html=1;labelBackgroundColor=none;fillColor=#f5f5f5;strokeColor=#666666;fontSize=10;fontColor=#333333;" parent="1" vertex="1">
          <mxGeometry x="-790" y="-670" width="74.98" height="50" as="geometry" />
        </mxCell>
        <mxCell id="jHZxE4_nvhRUDPhLf2d2-18" value="Stage equipment/ lights/ smoke machines, etc." style="rounded=0;whiteSpace=wrap;html=1;labelBackgroundColor=none;fillColor=#f5f5f5;strokeColor=#666666;fontSize=10;fontColor=#333333;" parent="1" vertex="1">
          <mxGeometry x="-700" y="-670" width="70" height="50" as="geometry" />
        </mxCell>
        <mxCell id="jHZxE4_nvhRUDPhLf2d2-19" value="&lt;span style=&quot;font-weight: 400; font-size: 10px;&quot;&gt;Synth&lt;/span&gt;" style="rounded=0;whiteSpace=wrap;html=1;labelBackgroundColor=none;fontStyle=1;fillColor=#f5f5f5;strokeColor=#666666;fontSize=10;fontColor=#333333;" parent="1" vertex="1">
          <mxGeometry x="-620" y="-670" width="40" height="50" as="geometry" />
        </mxCell>
        <mxCell id="jHZxE4_nvhRUDPhLf2d2-20" style="edgeStyle=orthogonalEdgeStyle;rounded=0;orthogonalLoop=1;jettySize=auto;html=1;exitX=1;exitY=0.5;exitDx=0;exitDy=0;entryX=0.007;entryY=0.329;entryDx=0;entryDy=0;fillColor=default;strokeWidth=2;strokeColor=#666666;fontSize=10;entryPerimeter=0;" parent="1" source="jHZxE4_nvhRUDPhLf2d2-4" target="jHZxE4_nvhRUDPhLf2d2-12" edge="1">
          <mxGeometry relative="1" as="geometry" />
        </mxCell>
        <mxCell id="jHZxE4_nvhRUDPhLf2d2-21" value="&amp;nbsp;MIDI&amp;nbsp;" style="edgeLabel;html=1;align=center;verticalAlign=middle;resizable=0;points=[];fontSize=10;labelBackgroundColor=none;" parent="jHZxE4_nvhRUDPhLf2d2-20" vertex="1" connectable="0">
          <mxGeometry x="0.1605" relative="1" as="geometry">
            <mxPoint x="-3" y="-9" as="offset" />
          </mxGeometry>
        </mxCell>
        <mxCell id="jHZxE4_nvhRUDPhLf2d2-22" value="" style="rounded=0;whiteSpace=wrap;html=1;fillColor=#e1d5e7;strokeColor=#9673a6;fontSize=10;" parent="1" vertex="1">
          <mxGeometry x="-550" y="-870" width="70" height="90" as="geometry" />
        </mxCell>
        <mxCell id="jHZxE4_nvhRUDPhLf2d2-23" value="" style="rounded=0;whiteSpace=wrap;html=1;fillColor=#e1d5e7;strokeColor=#9673a6;fontSize=10;" parent="1" vertex="1">
          <mxGeometry x="-430" y="-870" width="60" height="170" as="geometry" />
        </mxCell>
        <mxCell id="jHZxE4_nvhRUDPhLf2d2-25" style="edgeStyle=orthogonalEdgeStyle;rounded=0;orthogonalLoop=1;jettySize=auto;html=1;exitX=1;exitY=0.5;exitDx=0;exitDy=0;fillColor=default;strokeWidth=2;strokeColor=#666666;fontSize=10;entryX=0.5;entryY=0;entryDx=0;entryDy=0;" parent="1" source="jHZxE4_nvhRUDPhLf2d2-29" target="jHZxE4_nvhRUDPhLf2d2-35" edge="1">
          <mxGeometry relative="1" as="geometry">
            <Array as="points">
              <mxPoint x="-365" y="-800" />
              <mxPoint x="-365" y="-690" />
              <mxPoint x="-380" y="-690" />
            </Array>
          </mxGeometry>
        </mxCell>
        <mxCell id="jHZxE4_nvhRUDPhLf2d2-26" value="MIDI" style="edgeLabel;html=1;align=center;verticalAlign=middle;resizable=0;points=[];fontSize=10;" parent="jHZxE4_nvhRUDPhLf2d2-25" vertex="1" connectable="0">
          <mxGeometry x="-0.04" y="1" relative="1" as="geometry">
            <mxPoint x="-30" y="49" as="offset" />
          </mxGeometry>
        </mxCell>
        <mxCell id="jHZxE4_nvhRUDPhLf2d2-27" style="edgeStyle=orthogonalEdgeStyle;rounded=0;orthogonalLoop=1;jettySize=auto;html=1;exitX=0.5;exitY=1;exitDx=0;exitDy=0;fillColor=default;strokeWidth=2;strokeColor=#666666;fontSize=10;" parent="1" source="jHZxE4_nvhRUDPhLf2d2-29" target="jHZxE4_nvhRUDPhLf2d2-34" edge="1">
          <mxGeometry relative="1" as="geometry">
            <Array as="points">
              <mxPoint x="-400" y="-730" />
              <mxPoint x="-475" y="-730" />
            </Array>
            <mxPoint x="-420" y="-730" as="sourcePoint" />
          </mxGeometry>
        </mxCell>
        <mxCell id="jHZxE4_nvhRUDPhLf2d2-28" value="OSC" style="edgeLabel;html=1;align=center;verticalAlign=middle;resizable=0;points=[];fontSize=10;labelBackgroundColor=none;" parent="jHZxE4_nvhRUDPhLf2d2-27" vertex="1" connectable="0">
          <mxGeometry x="-0.1267" y="-1" relative="1" as="geometry">
            <mxPoint x="-24" y="11" as="offset" />
          </mxGeometry>
        </mxCell>
        <mxCell id="jHZxE4_nvhRUDPhLf2d2-29" value="VST&lt;br style=&quot;font-size: 10px;&quot;&gt;Plugin" style="rounded=0;whiteSpace=wrap;html=1;fillColor=#d5e8d4;strokeColor=#82b366;fontSize=10;" parent="1" vertex="1">
          <mxGeometry x="-420" y="-830" width="40" height="60" as="geometry" />
        </mxCell>
        <mxCell id="jHZxE4_nvhRUDPhLf2d2-30" value="&lt;u style=&quot;font-size: 10px;&quot;&gt;Keyboard&lt;/u&gt;" style="text;html=1;strokeColor=none;fillColor=none;align=center;verticalAlign=middle;whiteSpace=wrap;rounded=0;labelBackgroundColor=none;fontSize=10;" parent="1" vertex="1">
          <mxGeometry x="-540" y="-850" width="50" height="20" as="geometry" />
        </mxCell>
        <mxCell id="jHZxE4_nvhRUDPhLf2d2-33" value="&lt;u style=&quot;font-size: 10px;&quot;&gt;Raspberry &lt;br&gt;Pi 4&lt;/u&gt;" style="text;html=1;strokeColor=none;fillColor=none;align=center;verticalAlign=middle;whiteSpace=wrap;rounded=0;labelBackgroundColor=none;fontSize=10;" parent="1" vertex="1">
          <mxGeometry x="-450" y="-860" width="97.5" height="20" as="geometry" />
        </mxCell>
        <mxCell id="jHZxE4_nvhRUDPhLf2d2-34" value="Stage equipment/ lights/ smoke machines, etc." style="rounded=0;whiteSpace=wrap;html=1;labelBackgroundColor=none;fillColor=#ffe6cc;strokeColor=#d79b00;fontSize=10;" parent="1" vertex="1">
          <mxGeometry x="-480" y="-670" width="70" height="50" as="geometry" />
        </mxCell>
        <mxCell id="jHZxE4_nvhRUDPhLf2d2-35" value="&lt;span style=&quot;font-weight: 400; font-size: 10px;&quot;&gt;Synth&lt;/span&gt;" style="rounded=0;whiteSpace=wrap;html=1;labelBackgroundColor=none;fontStyle=1;fillColor=#ffe6cc;strokeColor=#d79b00;fontSize=10;" parent="1" vertex="1">
          <mxGeometry x="-400" y="-670" width="40" height="50" as="geometry" />
        </mxCell>
        <mxCell id="jHZxE4_nvhRUDPhLf2d2-36" style="edgeStyle=orthogonalEdgeStyle;rounded=0;orthogonalLoop=1;jettySize=auto;html=1;entryX=0;entryY=0.5;entryDx=0;entryDy=0;fillColor=default;strokeWidth=2;strokeColor=#666666;fontSize=10;" parent="1" target="jHZxE4_nvhRUDPhLf2d2-29" edge="1">
          <mxGeometry relative="1" as="geometry">
            <mxPoint x="-500" y="-780" as="sourcePoint" />
            <Array as="points">
              <mxPoint x="-500" y="-780" />
              <mxPoint x="-500" y="-760" />
              <mxPoint x="-470" y="-760" />
              <mxPoint x="-470" y="-800" />
            </Array>
          </mxGeometry>
        </mxCell>
        <mxCell id="jHZxE4_nvhRUDPhLf2d2-37" value="&amp;nbsp;MIDI&amp;nbsp;" style="edgeLabel;html=1;align=center;verticalAlign=middle;resizable=0;points=[];fontSize=10;labelBackgroundColor=none;" parent="jHZxE4_nvhRUDPhLf2d2-36" vertex="1" connectable="0">
          <mxGeometry x="0.1605" relative="1" as="geometry">
            <mxPoint x="13" y="-16" as="offset" />
          </mxGeometry>
        </mxCell>
        <mxCell id="jHZxE4_nvhRUDPhLf2d2-38" style="edgeStyle=orthogonalEdgeStyle;rounded=0;orthogonalLoop=1;jettySize=auto;html=1;fillColor=default;strokeWidth=2;strokeColor=#666666;fontSize=10;entryX=0;entryY=0.75;entryDx=0;entryDy=0;" parent="1" target="jHZxE4_nvhRUDPhLf2d2-12" edge="1">
          <mxGeometry relative="1" as="geometry">
            <mxPoint x="-750" y="-700" as="sourcePoint" />
            <mxPoint x="-660" y="-810" as="targetPoint" />
            <Array as="points">
              <mxPoint x="-690" y="-700" />
              <mxPoint x="-690" y="-785" />
            </Array>
          </mxGeometry>
        </mxCell>
        <mxCell id="jHZxE4_nvhRUDPhLf2d2-41" value="Amplifier/&amp;nbsp;&lt;div&gt;PA System&lt;/div&gt;" style="rounded=0;whiteSpace=wrap;html=1;labelBackgroundColor=none;fillColor=#ffe6cc;strokeColor=#d79b00;fontSize=10;" parent="1" vertex="1">
          <mxGeometry x="-550" y="-670" width="64.98" height="50" as="geometry" />
        </mxCell>
        <mxCell id="jHZxE4_nvhRUDPhLf2d2-42" style="edgeStyle=orthogonalEdgeStyle;rounded=0;orthogonalLoop=1;jettySize=auto;html=1;fillColor=default;strokeWidth=2;strokeColor=#666666;fontSize=10;exitX=0.307;exitY=1.005;exitDx=0;exitDy=0;exitPerimeter=0;" parent="1" source="jHZxE4_nvhRUDPhLf2d2-22" target="jHZxE4_nvhRUDPhLf2d2-29" edge="1">
          <mxGeometry relative="1" as="geometry">
            <mxPoint x="-495" y="-760" as="sourcePoint" />
            <Array as="points">
              <mxPoint x="-530" y="-779" />
              <mxPoint x="-530" y="-740" />
              <mxPoint x="-450" y="-740" />
              <mxPoint x="-450" y="-780" />
            </Array>
            <mxPoint x="-430" y="-780" as="targetPoint" />
          </mxGeometry>
        </mxCell>
        <mxCell id="jHZxE4_nvhRUDPhLf2d2-43" value="Audio" style="edgeLabel;html=1;align=center;verticalAlign=middle;resizable=0;points=[];fontSize=10;labelBackgroundColor=none;" parent="jHZxE4_nvhRUDPhLf2d2-42" vertex="1" connectable="0">
          <mxGeometry x="0.1605" relative="1" as="geometry">
            <mxPoint x="-54" y="-7" as="offset" />
          </mxGeometry>
        </mxCell>
        <mxCell id="jHZxE4_nvhRUDPhLf2d2-45" style="edgeStyle=orthogonalEdgeStyle;rounded=0;orthogonalLoop=1;jettySize=auto;html=1;fillColor=default;strokeWidth=2;strokeColor=#666666;fontSize=10;exitX=0.307;exitY=1.005;exitDx=0;exitDy=0;exitPerimeter=0;entryX=0.462;entryY=0;entryDx=0;entryDy=0;entryPerimeter=0;" parent="1" target="jHZxE4_nvhRUDPhLf2d2-41" edge="1">
          <mxGeometry relative="1" as="geometry">
            <mxPoint x="-529" y="-780" as="sourcePoint" />
            <Array as="points">
              <mxPoint x="-530" y="-779" />
              <mxPoint x="-530" y="-740" />
              <mxPoint x="-520" y="-740" />
            </Array>
            <mxPoint x="-420" y="-780" as="targetPoint" />
          </mxGeometry>
        </mxCell>
        <mxCell id="EUy8n02-vDI4mkvdKWN1-1" value="" style="rounded=0;whiteSpace=wrap;html=1;fillColor=#dae8fc;strokeColor=#6c8ebf;fontSize=10;" vertex="1" parent="1">
          <mxGeometry x="-330" y="-870" width="70" height="90" as="geometry" />
        </mxCell>
        <mxCell id="EUy8n02-vDI4mkvdKWN1-2" value="" style="rounded=0;whiteSpace=wrap;html=1;fillColor=#dae8fc;strokeColor=#6c8ebf;fontSize=10;" vertex="1" parent="1">
          <mxGeometry x="-210" y="-870" width="60" height="170" as="geometry" />
        </mxCell>
        <mxCell id="EUy8n02-vDI4mkvdKWN1-3" style="edgeStyle=orthogonalEdgeStyle;rounded=0;orthogonalLoop=1;jettySize=auto;html=1;exitX=1;exitY=0.5;exitDx=0;exitDy=0;fillColor=default;strokeWidth=2;strokeColor=#666666;fontSize=10;entryX=0.5;entryY=0;entryDx=0;entryDy=0;" edge="1" parent="1" source="EUy8n02-vDI4mkvdKWN1-7" target="EUy8n02-vDI4mkvdKWN1-11">
          <mxGeometry relative="1" as="geometry">
            <Array as="points">
              <mxPoint x="-145" y="-800" />
              <mxPoint x="-145" y="-690" />
              <mxPoint x="-160" y="-690" />
            </Array>
          </mxGeometry>
        </mxCell>
        <mxCell id="EUy8n02-vDI4mkvdKWN1-4" value="MIDI" style="edgeLabel;html=1;align=center;verticalAlign=middle;resizable=0;points=[];fontSize=10;" vertex="1" connectable="0" parent="EUy8n02-vDI4mkvdKWN1-3">
          <mxGeometry x="-0.04" y="1" relative="1" as="geometry">
            <mxPoint x="-30" y="49" as="offset" />
          </mxGeometry>
        </mxCell>
        <mxCell id="EUy8n02-vDI4mkvdKWN1-5" style="edgeStyle=orthogonalEdgeStyle;rounded=0;orthogonalLoop=1;jettySize=auto;html=1;exitX=0.5;exitY=1;exitDx=0;exitDy=0;fillColor=default;strokeWidth=2;strokeColor=#666666;fontSize=10;" edge="1" parent="1" source="EUy8n02-vDI4mkvdKWN1-7" target="EUy8n02-vDI4mkvdKWN1-10">
          <mxGeometry relative="1" as="geometry">
            <Array as="points">
              <mxPoint x="-180" y="-730" />
              <mxPoint x="-255" y="-730" />
            </Array>
            <mxPoint x="-200" y="-730" as="sourcePoint" />
          </mxGeometry>
        </mxCell>
        <mxCell id="EUy8n02-vDI4mkvdKWN1-6" value="OSC" style="edgeLabel;html=1;align=center;verticalAlign=middle;resizable=0;points=[];fontSize=10;labelBackgroundColor=none;" vertex="1" connectable="0" parent="EUy8n02-vDI4mkvdKWN1-5">
          <mxGeometry x="-0.1267" y="-1" relative="1" as="geometry">
            <mxPoint x="-24" y="11" as="offset" />
          </mxGeometry>
        </mxCell>
        <mxCell id="EUy8n02-vDI4mkvdKWN1-7" value="VST&lt;br style=&quot;font-size: 10px;&quot;&gt;Plugin" style="rounded=0;whiteSpace=wrap;html=1;fillColor=#d5e8d4;strokeColor=#82b366;fontSize=10;" vertex="1" parent="1">
          <mxGeometry x="-200" y="-830" width="40" height="60" as="geometry" />
        </mxCell>
        <mxCell id="EUy8n02-vDI4mkvdKWN1-8" value="&lt;u&gt;Drums&lt;/u&gt;" style="text;html=1;strokeColor=none;fillColor=none;align=center;verticalAlign=middle;whiteSpace=wrap;rounded=0;labelBackgroundColor=none;fontSize=10;" vertex="1" parent="1">
          <mxGeometry x="-320" y="-850" width="50" height="20" as="geometry" />
        </mxCell>
        <mxCell id="EUy8n02-vDI4mkvdKWN1-9" value="&lt;u style=&quot;font-size: 10px;&quot;&gt;Raspberry &lt;br&gt;Pi 4&lt;/u&gt;" style="text;html=1;strokeColor=none;fillColor=none;align=center;verticalAlign=middle;whiteSpace=wrap;rounded=0;labelBackgroundColor=none;fontSize=10;" vertex="1" parent="1">
          <mxGeometry x="-230" y="-860" width="97.5" height="20" as="geometry" />
        </mxCell>
        <mxCell id="EUy8n02-vDI4mkvdKWN1-10" value="Stage equipment/ lights/ smoke machines, etc." style="rounded=0;whiteSpace=wrap;html=1;labelBackgroundColor=none;fillColor=#fff2cc;strokeColor=#d6b656;fontSize=10;" vertex="1" parent="1">
          <mxGeometry x="-260" y="-670" width="70" height="50" as="geometry" />
        </mxCell>
        <mxCell id="EUy8n02-vDI4mkvdKWN1-11" value="&lt;span style=&quot;font-weight: 400; font-size: 10px;&quot;&gt;Synth&lt;/span&gt;" style="rounded=0;whiteSpace=wrap;html=1;labelBackgroundColor=none;fontStyle=1;fillColor=#fff2cc;strokeColor=#d6b656;fontSize=10;" vertex="1" parent="1">
          <mxGeometry x="-180" y="-670" width="40" height="50" as="geometry" />
        </mxCell>
        <mxCell id="EUy8n02-vDI4mkvdKWN1-12" style="edgeStyle=orthogonalEdgeStyle;rounded=0;orthogonalLoop=1;jettySize=auto;html=1;entryX=0;entryY=0.5;entryDx=0;entryDy=0;fillColor=default;strokeWidth=2;strokeColor=#666666;fontSize=10;" edge="1" parent="1" target="EUy8n02-vDI4mkvdKWN1-7">
          <mxGeometry relative="1" as="geometry">
            <mxPoint x="-280" y="-780" as="sourcePoint" />
            <Array as="points">
              <mxPoint x="-280" y="-780" />
              <mxPoint x="-280" y="-760" />
              <mxPoint x="-250" y="-760" />
              <mxPoint x="-250" y="-800" />
            </Array>
          </mxGeometry>
        </mxCell>
        <mxCell id="EUy8n02-vDI4mkvdKWN1-13" value="&amp;nbsp;MIDI&amp;nbsp;" style="edgeLabel;html=1;align=center;verticalAlign=middle;resizable=0;points=[];fontSize=10;labelBackgroundColor=none;" vertex="1" connectable="0" parent="EUy8n02-vDI4mkvdKWN1-12">
          <mxGeometry x="0.1605" relative="1" as="geometry">
            <mxPoint x="13" y="-16" as="offset" />
          </mxGeometry>
        </mxCell>
        <mxCell id="EUy8n02-vDI4mkvdKWN1-14" value="Amplifier/&amp;nbsp;&lt;div&gt;PA System&lt;/div&gt;" style="rounded=0;whiteSpace=wrap;html=1;labelBackgroundColor=none;fillColor=#fff2cc;strokeColor=#d6b656;fontSize=10;" vertex="1" parent="1">
          <mxGeometry x="-330" y="-670" width="64.98" height="50" as="geometry" />
        </mxCell>
        <mxCell id="EUy8n02-vDI4mkvdKWN1-15" style="edgeStyle=orthogonalEdgeStyle;rounded=0;orthogonalLoop=1;jettySize=auto;html=1;fillColor=default;strokeWidth=2;strokeColor=#666666;fontSize=10;exitX=0.307;exitY=1.005;exitDx=0;exitDy=0;exitPerimeter=0;" edge="1" parent="1" source="EUy8n02-vDI4mkvdKWN1-1" target="EUy8n02-vDI4mkvdKWN1-7">
          <mxGeometry relative="1" as="geometry">
            <mxPoint x="-275" y="-760" as="sourcePoint" />
            <Array as="points">
              <mxPoint x="-310" y="-779" />
              <mxPoint x="-310" y="-740" />
              <mxPoint x="-230" y="-740" />
              <mxPoint x="-230" y="-780" />
            </Array>
            <mxPoint x="-210" y="-780" as="targetPoint" />
          </mxGeometry>
        </mxCell>
        <mxCell id="EUy8n02-vDI4mkvdKWN1-16" value="Audio" style="edgeLabel;html=1;align=center;verticalAlign=middle;resizable=0;points=[];fontSize=10;labelBackgroundColor=none;" vertex="1" connectable="0" parent="EUy8n02-vDI4mkvdKWN1-15">
          <mxGeometry x="0.1605" relative="1" as="geometry">
            <mxPoint x="-54" y="-7" as="offset" />
          </mxGeometry>
        </mxCell>
        <mxCell id="EUy8n02-vDI4mkvdKWN1-17" style="edgeStyle=orthogonalEdgeStyle;rounded=0;orthogonalLoop=1;jettySize=auto;html=1;fillColor=default;strokeWidth=2;strokeColor=#666666;fontSize=10;exitX=0.307;exitY=1.005;exitDx=0;exitDy=0;exitPerimeter=0;entryX=0.462;entryY=0;entryDx=0;entryDy=0;entryPerimeter=0;" edge="1" parent="1" target="EUy8n02-vDI4mkvdKWN1-14">
          <mxGeometry relative="1" as="geometry">
            <mxPoint x="-309" y="-780" as="sourcePoint" />
            <Array as="points">
              <mxPoint x="-310" y="-779" />
              <mxPoint x="-310" y="-740" />
              <mxPoint x="-300" y="-740" />
            </Array>
            <mxPoint x="-200" y="-780" as="targetPoint" />
          </mxGeometry>
        </mxCell>
        <mxCell id="EUy8n02-vDI4mkvdKWN1-21" value="Smart Guitar" style="rounded=0;whiteSpace=wrap;html=1;fillColor=#f8cecc;strokeColor=#b85450;opacity=30;strokeWidth=2;" vertex="1" parent="1">
          <mxGeometry x="-800" y="-900" width="210" height="20" as="geometry" />
        </mxCell>
        <mxCell id="EUy8n02-vDI4mkvdKWN1-22" value="" style="rounded=0;whiteSpace=wrap;html=1;fillColor=#e1d5e7;strokeColor=#9673a6;opacity=30;strokeWidth=2;" vertex="1" parent="1">
          <mxGeometry x="-560" y="-900" width="200" height="220" as="geometry" />
        </mxCell>
        <mxCell id="EUy8n02-vDI4mkvdKWN1-23" value="Smart Keyboard" style="rounded=0;whiteSpace=wrap;html=1;fillColor=#e1d5e7;strokeColor=#9673a6;opacity=30;strokeWidth=2;" vertex="1" parent="1">
          <mxGeometry x="-560" y="-900" width="200" height="20" as="geometry" />
        </mxCell>
        <mxCell id="EUy8n02-vDI4mkvdKWN1-24" value="" style="rounded=0;whiteSpace=wrap;html=1;fillColor=#dae8fc;strokeColor=#6c8ebf;opacity=30;strokeWidth=2;" vertex="1" parent="1">
          <mxGeometry x="-333.75" y="-900" width="193.75" height="220" as="geometry" />
        </mxCell>
        <mxCell id="EUy8n02-vDI4mkvdKWN1-25" value="Smart Drum" style="rounded=0;whiteSpace=wrap;html=1;fillColor=#dae8fc;strokeColor=#6c8ebf;opacity=30;strokeWidth=2;" vertex="1" parent="1">
          <mxGeometry x="-333.75" y="-900" width="193.75" height="20" as="geometry" />
        </mxCell>
      </root>
    </mxGraphModel>
  </diagram>
</mxfile>
